<svg width="24" height="24" viewBox="0 0 24 24" fill="none" xmlns="http://www.w3.org/2000/svg">
<g clip-path="url(#clip0_123_257)">
<path d="M10.719 2.082C8.147 4.11 6 7.294 6 12C6 16.569 7.938 19.798 10.548 21.895C5.719 21.19 2 17.021 2 12C2 6.92 5.808 2.712 10.719 2.082ZM12 0C5.383 0 0 5.383 0 12C0 18.617 5.383 24 12 24C13.894 24 15.87 23.667 17.37 22.821C13.917 22.208 8 19.454 8 12C8 4.445 14.422 1.683 17.37 1.179C15.63 0.497 13.894 0 12 0ZM12 10.999C13.437 11.437 14.562 12.563 14.999 14C15.439 12.563 16.564 11.438 18 11C16.564 10.561 15.439 9.437 14.999 8C14.562 9.436 13.437 10.561 12 10.999ZM20.001 11C20.959 11.293 21.708 12.042 22.001 13.001C22.292 12.042 23.043 11.292 24 11C23.043 10.708 22.293 9.958 22 9C21.707 9.958 20.958 10.708 20.001 11ZM19.001 2C18.564 3.437 17.438 4.562 16.003 5.001C17.441 5.441 18.564 6.565 19.004 8.003C19.441 6.565 20.567 5.44 22 5.001C20.567 4.564 19.441 3.437 19.001 2Z" fill="#D7F4FE"/>
</g>
<defs>
<clipPath id="clip0_123_257">
<rect width="24" height="24" fill="white"/>
</clipPath>
</defs>
</svg>
